<svg xmlns="http://www.w3.org/2000/svg" xmlns:xlink="http://www.w3.org/1999/xlink" width="49" height="20" viewBox="0 0 49 20">
  <defs>
    <clipPath id="clip-Top_Nav">
      <rect width="49" height="20"/>
    </clipPath>
  </defs>
  <g id="Top_Nav" data-name="Top Nav" clip-path="url(#clip-Top_Nav)">
    <g id="Group_467" data-name="Group 467" transform="translate(618.492 -643.526)">
      <path id="Path_299" data-name="Path 299" d="M-609.3,659.241h-3.474a1.718,1.718,0,0,1-1.714-1.714V647.24a1.718,1.718,0,0,1,1.714-1.714h10.248a.783.783,0,0,1,0,1.567h-10.248a.148.148,0,0,0-.147.148v10.287a.133.133,0,0,0,.133.138q2.2.009,4.393.009l.966,1.673,4.329-3.7a.788.788,0,0,1,1.118-.01.785.785,0,0,1,.007,1.1l-5.058,4.441c-.649.514-.99.272-1.35-.35Z" fill="#2ea88f" fill-rule="evenodd"/>
      <path id="Path_300" data-name="Path 300" d="M-574.021,692.368a.24.24,0,0,1,.094.018.257.257,0,0,1,.09.061l.526.565a2.169,2.169,0,0,1-.865.671,3.077,3.077,0,0,1-1.231.226,2.93,2.93,0,0,1-1.167-.222,2.527,2.527,0,0,1-.875-.612,2.7,2.7,0,0,1-.552-.926,3.432,3.432,0,0,1-.192-1.166,3.075,3.075,0,0,1,.22-1.176,2.759,2.759,0,0,1,.615-.925,2.765,2.765,0,0,1,.943-.6,3.289,3.289,0,0,1,1.213-.216,3.1,3.1,0,0,1,.607.057,2.961,2.961,0,0,1,.531.157,2.515,2.515,0,0,1,.455.241,2.148,2.148,0,0,1,.369.31l-.447.6a.564.564,0,0,1-.1.1.266.266,0,0,1-.165.046.293.293,0,0,1-.133-.031,1.484,1.484,0,0,1-.133-.077l-.154-.1a1.19,1.19,0,0,0-.2-.1,1.657,1.657,0,0,0-.271-.076,1.848,1.848,0,0,0-.364-.031,1.66,1.66,0,0,0-.659.127,1.443,1.443,0,0,0-.512.365,1.7,1.7,0,0,0-.334.576,2.254,2.254,0,0,0-.12.757,2.353,2.353,0,0,0,.12.781,1.711,1.711,0,0,0,.326.574,1.383,1.383,0,0,0,.48.356,1.438,1.438,0,0,0,.589.122,2.806,2.806,0,0,0,.33-.018,1.374,1.374,0,0,0,.277-.06,1.288,1.288,0,0,0,.243-.113,1.613,1.613,0,0,0,.233-.17.462.462,0,0,1,.1-.065.268.268,0,0,1,.114-.025Zm2.724-1.417-1.77-2.826h1.326a.418.418,0,0,1,.191.033.3.3,0,0,1,.107.113l1.138,1.927a.835.835,0,0,1,.046-.1c.017-.031.035-.064.056-.1l1-1.711a.3.3,0,0,1,.267-.165h1.272l-1.793,2.768,1.833,2.954h-1.326a.329.329,0,0,1-.209-.063.48.48,0,0,1-.128-.149l-1.146-2a.789.789,0,0,1-.071.149l-1.067,1.852a.532.532,0,0,1-.126.147.3.3,0,0,1-.2.065h-1.24Z" transform="translate(-33.573 -39.342)" fill="#2ea88f" fill-rule="evenodd"/>
      <path id="Path_301" data-name="Path 301" d="M-429.418,692.406v2.115h-1.326v-5.726h1.86a3.821,3.821,0,0,1,1.058.128,1.986,1.986,0,0,1,.714.356,1.338,1.338,0,0,1,.4.539,1.789,1.789,0,0,1,.126.676,1.822,1.822,0,0,1-.075.527,1.593,1.593,0,0,1-.221.458,1.717,1.717,0,0,1-.361.375,1.887,1.887,0,0,1-.493.272,1.254,1.254,0,0,1,.25.165.98.98,0,0,1,.2.239l1.217,1.99h-1.2a.509.509,0,0,1-.479-.251l-.95-1.66a.4.4,0,0,0-.147-.157.5.5,0,0,0-.238-.047Zm18.382-1.954h.973a.414.414,0,0,1,.224.059.234.234,0,0,1,.114.153l.408,1.828q.047.208.086.4t.071.389c.037-.128.076-.258.116-.387s.08-.264.119-.406l.51-1.831a.259.259,0,0,1,.114-.15.363.363,0,0,1,.208-.062h.542a.4.4,0,0,1,.222.062.256.256,0,0,1,.115.15l.487,1.831c.037.139.075.273.112.4s.073.263.107.4c.021-.131.047-.262.077-.391s.062-.266.1-.409l.432-1.828a.236.236,0,0,1,.113-.153.38.38,0,0,1,.209-.059h.926l-1.264,4.074h-.989a.2.2,0,0,1-.133-.047.316.316,0,0,1-.086-.157l-.581-2.032q-.039-.137-.075-.271t-.063-.267c-.018.092-.038.183-.06.273s-.048.18-.077.272l-.589,2.024a.25.25,0,0,1-.259.2h-.942l-1.264-4.074Zm-2.056-.063a2.1,2.1,0,0,1,.74.126,1.608,1.608,0,0,1,.577.365,1.666,1.666,0,0,1,.377.586,2.156,2.156,0,0,1,.135.787,1.723,1.723,0,0,1-.012.224.354.354,0,0,1-.043.137.163.163,0,0,1-.084.071.4.4,0,0,1-.136.02h-2.347a1.157,1.157,0,0,0,.31.743.923.923,0,0,0,.648.23,1.16,1.16,0,0,0,.365-.051,1.712,1.712,0,0,0,.273-.115l.22-.114a.453.453,0,0,1,.209-.051.251.251,0,0,1,.22.109l.353.445a1.771,1.771,0,0,1-.405.345,2.1,2.1,0,0,1-.447.209,2.521,2.521,0,0,1-.459.1,3.434,3.434,0,0,1-.438.029,2.283,2.283,0,0,1-.8-.14,1.842,1.842,0,0,1-.655-.413,1.971,1.971,0,0,1-.444-.684,2.554,2.554,0,0,1-.163-.951,2.151,2.151,0,0,1,.14-.773,1.923,1.923,0,0,1,.4-.641,1.905,1.905,0,0,1,.632-.436,2.082,2.082,0,0,1,.837-.161Zm.024.84a.733.733,0,0,0-.545.2,1.034,1.034,0,0,0-.259.572h1.519a1.069,1.069,0,0,0-.037-.282.688.688,0,0,0-.122-.246.62.62,0,0,0-.223-.174.757.757,0,0,0-.334-.067Zm-2.747-.777v4.074h-1.217v-4.074Zm-3.344,4.074h-1.107l-1.578-4.074h1.012a.377.377,0,0,1,.219.061.3.3,0,0,1,.119.151l.565,1.826c.045.15.088.3.128.437s.075.282.1.424q.043-.212.106-.424c.042-.141.086-.287.133-.437l.589-1.826a.305.305,0,0,1,.118-.151.346.346,0,0,1,.2-.061h.965l-1.578,4.074Zm-4.623-4.136a2.1,2.1,0,0,1,.74.126,1.607,1.607,0,0,1,.577.365,1.664,1.664,0,0,1,.377.586,2.155,2.155,0,0,1,.135.787,1.722,1.722,0,0,1-.012.224.353.353,0,0,1-.043.137.163.163,0,0,1-.084.071.4.4,0,0,1-.136.02h-2.347a1.157,1.157,0,0,0,.31.743.923.923,0,0,0,.648.23,1.159,1.159,0,0,0,.365-.051,1.713,1.713,0,0,0,.273-.115l.22-.114a.452.452,0,0,1,.209-.051.251.251,0,0,1,.22.109l.353.445a1.774,1.774,0,0,1-.405.345,2.1,2.1,0,0,1-.447.209,2.521,2.521,0,0,1-.459.1,3.436,3.436,0,0,1-.438.029,2.283,2.283,0,0,1-.8-.14,1.843,1.843,0,0,1-.655-.413,1.973,1.973,0,0,1-.443-.684,2.555,2.555,0,0,1-.163-.951,2.151,2.151,0,0,1,.14-.773,1.921,1.921,0,0,1,.4-.641,1.9,1.9,0,0,1,.632-.436,2.082,2.082,0,0,1,.837-.161Zm.023.84a.733.733,0,0,0-.545.2,1.034,1.034,0,0,0-.259.572h1.519a1.072,1.072,0,0,0-.037-.282.688.688,0,0,0-.122-.246.62.62,0,0,0-.222-.174.757.757,0,0,0-.334-.067Zm-5.659.259h.534a1.366,1.366,0,0,0,.462-.069.83.83,0,0,0,.311-.19.726.726,0,0,0,.177-.285,1.088,1.088,0,0,0,.055-.351.736.736,0,0,0-.245-.589,1.144,1.144,0,0,0-.76-.212h-.534Z" transform="translate(-169.947 -40.019)" fill="#fff" fill-rule="evenodd"/>
      <path id="Path_302" data-name="Path 302" d="M-248.179,687.21a.64.64,0,0,1-.059.272.716.716,0,0,1-.161.224.783.783,0,0,1-.237.153.74.74,0,0,1-.289.058.684.684,0,0,1-.279-.058.779.779,0,0,1-.229-.153.706.706,0,0,1-.157-.224.658.658,0,0,1-.058-.272.684.684,0,0,1,.058-.279.723.723,0,0,1,.157-.228.732.732,0,0,1,.229-.153.705.705,0,0,1,.279-.055.763.763,0,0,1,.289.055.738.738,0,0,1,.237.153.733.733,0,0,1,.161.228A.665.665,0,0,1-248.179,687.21Z" transform="translate(-337.442 -37.893)" fill="#2ea88f" fill-rule="evenodd"/>
    </g>
  </g>
</svg>
